<svg xmlns="http://www.w3.org/2000/svg" width="69" height="65" viewBox="0 0 69 65" version="1.1">
	<path d="M 25.500 4.954 C 19.036 7.062, 9 12.284, 9 13.541 C 9 13.693, 11.813 12.961, 15.250 11.916 C 18.688 10.871, 23.300 10.041, 25.500 10.072 L 29.500 10.128 26 11.706 C 17.128 15.707, 10.199 19.477, 6.850 22.124 C 3.869 24.481, 3.200 25.665, 3.200 28.585 L 3.200 32.161 5.600 29.906 C 8.430 27.247, 8.631 26.544, 6.306 27.436 C 4.738 28.038, 4.733 27.953, 6.239 26.293 C 7.134 25.307, 9.323 23.642, 11.104 22.592 L 14.342 20.685 11.671 24.187 C 10.202 26.113, 9 28.003, 9 28.386 C 9 28.770, 8.100 30.050, 7 31.230 C 5.900 32.411, 5 34.267, 5 35.355 C 5 37.702, 5.368 37.422, 7.470 33.473 L 9.054 30.500 8.859 35 C 8.471 44, 12.815 52.024, 20.827 57.105 C 26.441 60.666, 30.446 60.772, 36.148 57.512 C 41.313 54.559, 41.901 54.469, 41.576 56.684 C 41.432 57.661, 39.687 58.891, 37.414 59.616 L 33.500 60.864 38.882 60.389 C 47.297 59.647, 56 54.050, 56 49.380 C 56 48.036, 56.666 46.682, 57.480 46.369 C 58.295 46.057, 59.417 44.158, 59.975 42.151 C 61.342 37.227, 61.263 36.537, 59.500 38 C 57.516 39.646, 57.463 37.291, 59.426 34.704 C 60.175 33.715, 60.544 31.973, 60.245 30.830 C 59.714 28.799, 59.671 28.806, 58.282 31.127 C 57.250 32.851, 57.048 32.953, 57.544 31.500 C 57.920 30.400, 58.427 28.812, 58.672 27.970 C 58.917 27.129, 58.180 24.253, 57.034 21.579 C 55.888 18.905, 55.149 16.518, 55.392 16.274 C 55.636 16.031, 53.285 13.550, 50.168 10.763 C 42.975 4.330, 43.194 4.572, 45.218 5.297 C 46.163 5.636, 47.202 5.482, 47.527 4.956 C 47.870 4.401, 46.205 4, 43.559 4 C 41.052 4, 39 3.580, 39 3.067 C 39 1.502, 33.909 2.214, 25.500 4.954 M 16 19.059 C 16 19.641, 16.450 19.840, 17 19.500 C 17.550 19.160, 18 18.684, 18 18.441 C 18 18.198, 17.550 18, 17 18 C 16.450 18, 16 18.477, 16 19.059 M 28.500 52 C 25.514 52.760, 25.518 52.764, 29.250 52.882 C 31.313 52.947, 33 52.550, 33 52 C 33 50.898, 32.830 50.898, 28.500 52 M 21.269 52.693 C 22.242 52.947, 23.592 52.930, 24.269 52.656 C 24.946 52.382, 24.150 52.175, 22.500 52.195 C 20.850 52.215, 20.296 52.439, 21.269 52.693" stroke="none" fill="black" fill-rule="evenodd"/>
</svg>